<?xml version="1.0" standalone="no"?>
<!DOCTYPE svg PUBLIC "-//W3C//DTD SVG 1.1//EN" "http://www.w3.org/Graphics/SVG/1.1/DTD/svg11.dtd" >
<!--
2012-6-10: Created.
-->
<svg xmlns="http://www.w3.org/2000/svg" xmlns:xlink="http://www.w3.org/1999/xlink" version="1.1">
<metadata>
Created by FontForge 20150522 at Sun Jan  3 13:24:34 2016
 By Christoph Haag,,,
Created by raphael with FontForge 2.0 (http://fontforge.sf.net)
</metadata>
<defs>
<font id="Whois-mono" horiz-adv-x="996" >
  <font-face 
    font-family="Whois"
    font-weight="500"
    font-stretch="normal"
    units-per-em="2048"
    panose-1="2 0 6 3 0 0 0 0 0 0"
    ascent="1587"
    descent="-461"
    x-height="998"
    cap-height="1331"
    bbox="0 -348 998 1704"
    underline-thickness="100"
    underline-position="-438"
    unicode-range="U+0001-20AC"
  />
    <missing-glyph />
    <glyph glyph-name="a" unicode="a" 
d="M205 891c51 61 143 107 276 107s228 -51 277 -135c41 -69 36 -190 36 -290v-299c0 0 -3 -72 10 -100s27 -54 92 -64v-113c-136 8 -182 90 -182 90h-5s-95 -87 -292 -87c-143 0 -240 77 -281 161s-36 161 -16 220c41 115 136 174 233 192c51 8 102 8 156 8
c49 0 103 -2 154 -2c0 97 2 184 -18 220c-26 44 -59 69 -164 69s-148 -31 -176 -62s-39 -74 -44 -110l-120 21c0 41 13 113 64 174zM625 179c28 23 35 49 38 59s0 210 0 210c-97 0 -192 10 -289 -3c-74 -13 -114 -29 -133 -107c-5 -21 -7 -80 15 -126c16 -34 56 -81 164 -84
c113 -3 174 23 205 51z" />
    <glyph glyph-name="b" unicode="b" 
d="M92 1331h128v-450c64 69 159 117 277 117c143 0 256 -77 317 -174s92 -217 92 -325s-31 -228 -92 -325s-171 -174 -317 -174c-118 0 -213 49 -277 118l-25 -118h-103v499v832zM497 868c-105 0 -161 -44 -205 -113s-72 -166 -72 -256s28 -187 72 -256s100 -112 205 -112
s166 43 210 112s66 166 66 256s-22 187 -66 256s-105 113 -210 113z" />
    <glyph glyph-name="at" unicode="@" 
d="M558 1248c133 1 276 -78 325 -162c41 -69 62 -125 62 -225v-285c0 -261 -211 -300 -282 -300c-143 0 -241 78 -282 162s-33 180 -12 239c84 238 300 189 445 189c0 97 -23 120 -43 156c-26 44 -108 95 -213 95c-348 0 -376 -346 -376 -512c0 -282 130 -487 353 -487
c110 0 159 13 315 36v-118c-133 -20 -169 -36 -320 -36c-338 0 -476 295 -476 633c0 333 158 611 504 615zM814 743c-97 0 -85 1 -159 -2c-68 -2 -147 -35 -166 -113c-5 -21 -9 -93 13 -139c16 -34 56 -84 164 -85c187 -3 148 233 148 339z" />
    <glyph glyph-name="c" unicode="c" 
d="M507 998c102 0 190 -35 251 -94s94 -141 102 -228l-128 -10c-5 61 -30 113 -66 146s-85 56 -159 56c-105 0 -154 -41 -195 -110s-56 -167 -56 -259c0 -90 23 -187 67 -256s104 -112 209 -112c72 0 116 20 149 51s53 76 61 130l128 -20c-13 -74 -46 -148 -102 -202
s-139 -90 -236 -90c-146 0 -256 77 -317 174s-87 217 -87 325s16 228 72 325s164 174 307 174z" />
    <glyph glyph-name="d" unicode="d" 
d="M776 1331h128v-1331h-105l-23 118c-64 -69 -159 -118 -277 -118c-146 0 -256 77 -317 174s-87 217 -87 325s26 228 87 325s174 174 317 174c118 0 213 -45 277 -117v450zM499 868c-105 0 -163 -44 -207 -113s-67 -166 -67 -256s20 -187 64 -256s105 -112 210 -112
s164 43 208 112s69 166 69 256s-25 187 -69 256s-103 113 -208 113z" />
    <glyph glyph-name="e" unicode="e" 
d="M251 445c5 -84 23 -164 59 -215c41 -61 97 -94 187 -99c82 0 133 22 169 53s56 69 69 110l125 -38c-18 -56 -53 -121 -112 -172s-143 -84 -251 -84h-3c-128 5 -231 67 -292 159s-84 205 -84 325c0 118 15 243 71 340s162 169 305 172h3c97 -3 197 -26 271 -105
s113 -207 110 -384v-62h-627zM453 860c-92 -15 -187 -105 -197 -287h489c-5 118 -28 177 -69 228s-131 74 -223 59z" />
    <glyph glyph-name="f" unicode="f" 
d="M599 1329c136 -3 261 -82 307 -256l-94 -39c-46 136 -159 179 -251 164c-90 -15 -143 -76 -128 -194c8 -61 18 -105 23 -146h309v-131h-297v-727h-130v727h-246v131h231c-5 38 -11 74 -16 128c-15 138 36 333 292 343z" />
    <glyph glyph-name="g" unicode="g" 
d="M914 1065c0 -20 -3 -39 -8 -59c-18 -49 -53 -95 -125 -115c69 -59 82 -174 82 -228c0 -138 -131 -317 -364 -320c-44 0 -79 8 -107 5c-69 -8 -95 -36 -100 -69c-8 -46 17 -107 194 -107c366 0 428 -157 428 -254c0 -251 -264 -253 -415 -253c-125 0 -417 0 -417 248
c-3 108 86 195 194 215v3c-108 28 -110 94 -107 135c5 110 107 144 107 144v2s-148 97 -148 251c0 269 249 335 369 335c97 0 143 -15 194 -38c44 5 89 41 92 105h131zM497 873c-128 0 -241 -67 -241 -210c0 -59 48 -192 243 -192c187 0 236 136 236 192
c0 164 -110 210 -238 210zM497 56c-110 0 -285 -9 -285 -140s187 -144 287 -144s284 10 284 141s-176 143 -286 143z" />
    <glyph glyph-name="h" unicode="h" 
d="M118 1331h128v-507h5c36 94 162 171 271 171c138 0 208 -51 272 -135c46 -61 87 -186 87 -294v-566h-133v566c0 90 -18 138 -49 197c-20 38 -67 99 -177 99c-105 0 -173 -45 -217 -114s-59 -164 -59 -254v-494h-128v494v837z" />
    <glyph glyph-name="i" unicode="i" 
d="M136 998h427v-865h351v-133h-830v133h351v732h-299v133zM621 1329c0 -69 -54 -126 -123 -126s-123 57 -123 126s54 123 123 123s123 -54 123 -123z" />
    <glyph glyph-name="j" unicode="j" 
d="M271 998h564v-829s5 -189 -39 -297s-153 -205 -335 -205s-274 97 -310 192s-13 182 -13 182l115 -21s-7 -61 13 -115s52 -123 195 -123s184 65 212 139s26 248 26 248v699h-428v130zM868 1331c0 -69 -54 -125 -123 -125s-123 56 -123 125s54 126 123 126
s123 -57 123 -126z" />
    <glyph glyph-name="k" unicode="k" 
d="M92 1331h131v-903l530 568l94 -87l-355 -384l414 -512v-13h-161l-346 428l-176 -190v-238h-131v1331z" />
    <glyph glyph-name="l" unicode="l" 
d="M74 1331h489v-1200h361v-131h-850v131h361v1072h-361v128z" />
    <glyph glyph-name="m" unicode="m" 
d="M72 998h105l25 -74c41 41 82 77 156 74s121 -56 149 -102c41 54 95 102 192 102s169 -79 197 -138s31 -112 31 -143v-717h-133v717c0 23 2 61 -11 89s-31 57 -82 62c-41 5 -74 -13 -102 -41s-33 -90 -33 -90v-737h-133v717c0 23 2 61 -11 89s-31 57 -82 62
c-38 5 -82 -13 -110 -41c-18 -20 -28 -46 -28 -74v-753h-130v998z" />
    <glyph glyph-name="n" unicode="n" 
d="M530 998c120 0 200 -53 261 -148s64 -202 64 -307v-543h-131v543c0 97 -7 177 -35 228s-65 84 -149 97c-115 18 -266 -15 -266 -238v-630h-131v998h113l18 -89c61 51 136 89 256 89z" />
    <glyph glyph-name="o" unicode="o" 
d="M499 998c146 0 257 -74 318 -171s89 -217 89 -325s-28 -233 -89 -330s-174 -172 -320 -172s-259 75 -320 172s-85 222 -85 330s26 228 87 325s174 171 320 171zM499 868c-105 0 -163 -44 -207 -113s-69 -166 -69 -253s20 -192 64 -261s102 -113 210 -113s166 44 210 113
s69 174 69 261s-23 184 -67 253s-105 113 -210 113z" />
    <glyph glyph-name="p" unicode="p" 
d="M95 998h105l25 -125c64 72 156 123 274 123c143 0 257 -75 318 -172s87 -219 87 -327s-26 -231 -87 -328s-172 -172 -318 -172c-118 0 -210 49 -274 121v-451h-130v1331zM499 865c-105 0 -176 -43 -220 -112s-54 -166 -54 -256s7 -187 51 -256s118 -113 223 -113
s166 44 210 113s64 166 64 256s-20 187 -64 256s-105 112 -210 112z" />
    <glyph glyph-name="q" unicode="q" 
d="M904 998v-1331h-131v453c-64 -72 -156 -120 -274 -120c-146 0 -259 75 -320 172s-84 219 -84 327s26 231 87 328s174 171 317 171c118 0 210 -50 274 -122l28 122h103zM499 868c-105 0 -163 -44 -207 -113s-67 -166 -67 -256s23 -187 67 -256s102 -112 207 -112
s179 43 223 112s49 166 49 256s-5 187 -49 256s-118 113 -223 113z" />
    <glyph glyph-name="r" unicode="r" 
d="M182 998h110l20 -89c59 59 133 88 226 92c75 3 164 -8 231 -69c58 -53 88 -93 126 -178l-108 -61c-28 45 -35 75 -87 125c-46 44 -126 59 -186 52c-57 -7 -194 -30 -194 -294v-576h-138v998z" />
    <glyph glyph-name="s" unicode="s" 
d="M248 919c110 92 325 97 425 46s146 -110 164 -194l-105 -44c-23 61 -51 98 -92 118s-100 28 -177 23c-67 -5 -125 -31 -158 -69c-61 -72 -26 -171 71 -197s223 -54 320 -82s146 -88 172 -172s0 -179 -64 -246c-67 -67 -171 -102 -312 -102s-234 34 -295 90
s-77 130 -77 184l121 10c5 -38 12 -72 43 -100s88 -56 208 -56c118 0 187 31 220 67s43 76 30 125c-10 41 -36 59 -87 77c-113 36 -197 56 -294 82s-179 74 -207 156c-33 90 -16 192 94 284z" />
    <glyph glyph-name="t" unicode="t" 
d="M384 1229l131 36v-267h350v-133h-350v-734h348v-131h-479v865h-261v133h261v231z" />
    <glyph glyph-name="u" unicode="u" 
d="M471 -3c-120 0 -205 54 -266 149s-62 202 -62 307v545h131v-545c0 -97 8 -177 36 -228s64 -84 148 -97c115 -18 266 13 266 236v634h131v-998h-110l-21 82c-61 -51 -133 -85 -253 -85z" />
    <glyph glyph-name="v" unicode="v" 
d="M87 998h138l272 -801l6 -33l6 33l264 801h138l-332 -998h-151z" />
    <glyph glyph-name="w" unicode="w" 
d="M77 998h133l61 -750l167 436h123l166 -433l64 747h131l-85 -998h-138l-197 512l-3 10l-2 -10l-195 -512h-138z" />
    <glyph glyph-name="x" unicode="x" 
d="M87 998h159l251 -378v-3h2v3l256 378h156l-332 -491l343 -507h-159l-261 389v5h-3l-2 -5l-261 -389h-159l343 507z" />
    <glyph glyph-name="y" unicode="y" 
d="M87 998h138l272 -719l5 -28l5 28l266 719h138l-363 -993s-64 -146 -108 -205c-100 -133 -263 -145 -286 -148v130c26 5 130 21 184 95c44 59 97 202 97 202z" />
    <glyph glyph-name="z" unicode="z" 
d="M118 998h752v-128l-599 -739h630v-131h-804v128l604 740h-583v130z" />
    <glyph glyph-name="A" unicode="A" 
d="M417 1331h164l335 -1331h-133l-92 361h-384l-92 -361h-133zM499 1134l-2 -15l-157 -627h318l-156 624z" />
    <glyph glyph-name="B" unicode="B" 
d="M77 1331c0 0 268 3 404 0c123 0 218 -40 282 -107s89 -154 89 -238c0 -115 -30 -210 -99 -274c-10 -10 -21 -13 -26 -16c5 -3 16 -2 26 -7c20 -13 38 -26 56 -41c72 -67 113 -161 113 -274c0 -110 -33 -207 -100 -274s-166 -100 -279 -100h-466v1331zM207 1203v-450h274
c87 0 144 17 182 53s61 90 61 180c0 56 -20 110 -56 148s-92 69 -187 69h-274zM205 617v-489h338c87 0 149 26 187 64s64 98 64 182c0 82 -26 135 -70 176s-112 67 -202 67h-317z" />
    <glyph glyph-name="C" unicode="C" 
d="M525 1339c74 0 151 -15 223 -64s127 -130 163 -248l-115 -31c-28 97 -79 140 -123 171s-92 41 -148 41c-105 0 -197 -54 -266 -210c-31 -69 -47 -187 -47 -307s21 -243 49 -315c61 -156 149 -235 282 -235c123 0 230 115 245 225l128 -18c-26 -174 -176 -338 -373 -338
c-189 0 -328 134 -402 318c-38 97 -59 230 -59 361s13 263 59 363c84 187 228 287 384 287z" />
    <glyph glyph-name="D" unicode="D" 
d="M207 1331c105 0 193 2 295 -18c105 -26 212 -79 289 -181s123 -246 123 -443c0 -195 -34 -351 -108 -464s-186.834 -173.736 -322 -210c-82 -22 -182 -15 -289 -15h-111v1331h123zM471 1188c-82 20 -177 16 -256 13l-2 -1073c36 -3 156 -7 240 13c113 28 192 74 246 156
s87 210 87 392c0 179 -41 292 -97 366s-134 113 -218 133z" />
    <glyph glyph-name="E" unicode="E" 
d="M113 1331h787v-128h-657v-458h532v-131h-532v-483h654v-131h-784v1331z" />
    <glyph glyph-name="F" unicode="F" 
d="M113 0v1331h787v-128h-657v-458h532v-131h-532v-614h-130z" />
    <glyph glyph-name="G" unicode="G" 
d="M525 1331c187 -3 330 -107 389 -312l-118 -31c-36 125 -125 213 -271 213c-105 0 -195 -54 -264 -210c-31 -69 -49 -187 -49 -307s21 -246 49 -318c61 -156 149 -235 282 -235c115 0 217 102 243 204v210h-312v131h442v-673h-104l-16 138c-41 -69 -135 -141 -253 -141
c-189 0 -328 133 -402 317c-38 97 -59 233 -59 364s15 263 61 363c84 187 226 287 382 287z" />
    <glyph glyph-name="H" unicode="H" 
d="M79 1331h131v-594h578v594h131v-1331h-131v607h-578v-607h-131v1331z" />
    <glyph glyph-name="I" unicode="I" 
d="M87 1331h824v-130h-348v-1070h348v-131h-824v131h348v1070h-348v130z" />
    <glyph glyph-name="J" unicode="J" 
d="M233 1334h686v-3v-799c0 -187 -49 -325 -136 -412s-202 -120 -317 -120c-120 0 -220 59 -287 131s-100 158 -100 240h128c0 -41 23 -104 69 -153s108 -90 190 -90c90 0 169 23 225 82s100 156 100 322v671h-558v131z" />
    <glyph glyph-name="K" unicode="K" 
d="M72 1331h130v-755l561 755h161l-412 -555l415 -776h-146l-351 663l-228 -305v-358h-130v1331z" />
    <glyph glyph-name="L" unicode="L" 
d="M150 1331h131v-1200h643v-131h-774v1331z" />
    <glyph glyph-name="M" unicode="M" 
d="M804 1331h123v-1336h-128v1047l-300 -643l-299 638v-1037h-128v1331h123l302 -619l2 -16l3 16z" />
    <glyph glyph-name="N" unicode="N" 
d="M202 1331l586 -1067v1067h131v-1331h-123l-586 1068v-1068h-131v1331h123z" />
    <glyph glyph-name="O" unicode="O" 
d="M499 1331c148 0 264 -87 328 -210s89 -281 89 -453c0 -174 -27 -333 -94 -456s-180 -209 -323 -209s-258 86 -325 209s-92 282 -92 456c0 172 26 330 90 453s179 210 327 210zM499 1203c-102 0 -163 -48 -212 -143s-75 -233 -75 -392s26 -299 77 -394s113 -141 210 -141
s159 46 210 141s77 235 77 394s-25 297 -74 392s-111 143 -213 143z" />
    <glyph glyph-name="P" unicode="P" 
d="M87 1331h451c123 0 223 -48 284 -120s89 -161 89 -251c0 -123 -32 -223 -99 -292s-166 -97 -274 -97h-320v-571h-131v1331zM218 1198v-497h320c87 0 143 21 181 59s62 100 62 200c0 64 -19 122 -57 166s-94 72 -186 72h-320z" />
    <glyph glyph-name="Q" unicode="Q" 
d="M499 1331c148 0 264 -87 328 -210s90 -286 90 -458c0 -169 -34 -321 -88 -437c68 -81 76 -176 76 -226h-113c0 23 -6 84 -38 129l-42 -42c-54 -49 -113 -87 -218 -87s-228 56 -307 192s-105 300 -105 474c0 172 26 332 90 455s179 210 327 210zM732 318
c31 90 54 223 54 348c0 159 -25 299 -74 394s-111 141 -213 141s-163 -46 -212 -141s-75 -235 -75 -394s24 -302 75 -397s113 -141 210 -141c74 0 137 32 181 88l-136 133l65 79z" />
    <glyph glyph-name="R" unicode="R" 
d="M251 1331h284c123 0 223 -43 284 -115s90 -163 90 -253c0 -123 -36 -221 -103 -290c-33 -33 -68 -56 -112 -71l222 -599h-138l-215 570h-351v-570h-130v1328h169zM212 1203v-499h323c87 0 141 21 179 59s64 100 64 200c0 64 -18 122 -56 166s-95 74 -187 74h-323z" />
    <glyph glyph-name="S" unicode="S" 
d="M509 1329c253 0 374 -200 374 -200l-112 -64s-75 136 -262 136c-97 0 -163 -28 -207 -69s-64 -93 -64 -162c0 -61 31 -99 85 -135s128 -64 192 -90c56 -23 143 -51 222 -95s157 -114 172 -222c13 -97 -7 -203 -74 -287s-180 -141 -328 -141s-256 51 -323 105
s-100 113 -100 113l116 58s15 -31 64 -69s123 -76 243 -76c118 0 184 38 225 89s59 123 49 190c-8 56 -47 92 -108 128s-140 59 -207 87c-61 26 -146 54 -218 105s-137 130 -140 238c-3 100 35 191 107 258s171 103 294 103z" />
    <glyph glyph-name="T" unicode="T" 
d="M77 1331h845v-133h-359v-1198h-128v1198h-358v133z" />
    <glyph glyph-name="U" unicode="U" 
d="M82 1331h130v-763c0 -159 29 -271 75 -338s107 -99 212 -99s167 32 213 99s74 179 74 338v763h130v-763c0 -174 -28 -310 -97 -412s-184 -156 -320 -156s-251 54 -320 156s-97 238 -97 412v763z" />
    <glyph glyph-name="V" unicode="V" 
d="M84 1331h134l279 -1142l2 -20l3 20l279 1142h133l-333 -1331h-164z" />
    <glyph glyph-name="W" unicode="W" 
d="M82 1331h130l67 -1042l151 487l69 238l69 -236l151 -489l67 1042h130l-84 -1331h-156l-172 568l-5 39l-5 -39l-171 -568h-157z" />
    <glyph glyph-name="X" unicode="X" 
d="M92 1331h146l261 -543l261 543h146l-333 -663l338 -668h-146l-266 548l-266 -548h-146l341 668z" />
    <glyph glyph-name="Y" unicode="Y" 
d="M90 1334h140l269 -602l266 602h144l-346 -745v-589h-128v589z" />
    <glyph glyph-name="Z" unicode="Z" 
d="M95 1331h806v-138l-668 -1062h689v-131h-845v128l676 1070h-658v133z" />
    <glyph glyph-name="bracketleft" unicode="[" 
d="M225 1500h481v-133h-350v-1398h348v-131h-479v1662z" />
    <glyph glyph-name="backslash" unicode="\" 
d="M998 -128h-151l-793 1459h151z" />
    <glyph glyph-name="bracketright" unicode="]" 
d="M773 1500v-1662h-479v131h348v1398h-350v133h481z" />
    <glyph glyph-name="asciicircum" unicode="^" 
d="M298 1083h-153l250 249h175l250 -249h-153l-184 152z" />
    <glyph glyph-name="underscore" unicode="_" 
d="M898 -208h-798v131h798v-131z" />
    <glyph glyph-name="grave" unicode="`" 
d="M613 1083h-153l-222 183l125 66z" />
    <glyph glyph-name="braceleft" unicode="{" 
d="M390 694c28 -31 74 -78 74 -160v-486c0 -108 5 -110 89 -110h155v-100h-176h-8c-166 0 -166 96 -166 179v453c0 187 -34 177 -117 188v72c83 11 117 1 117 188v381c0 83 0 179 166 179h8h176v-100h-155c-84 0 -89 -3 -89 -111v-413c0 -82 -46 -129 -74 -160z" />
    <glyph glyph-name="bar" unicode="|" 
d="M563 -162h-131v1662h131v-1662z" />
    <glyph glyph-name="braceright" unicode="}" 
d="M608 694c-28 31 -74 78 -74 160v413c0 108 -5 111 -89 111h-155v100h176h8c166 0 166 -96 166 -179v-381c0 -187 34 -177 117 -188v-72c-83 -11 -117 -1 -117 -188v-453c0 -83 0 -179 -166 -179h-8h-176v100h155c84 0 89 2 89 110v486c0 82 46 129 74 160z" />
    <glyph glyph-name="asciitilde" unicode="~" 
d="M772 1192c-54 -57 -129 -109 -206 -109c-75 0 -157 90 -214 90c-52 0 -91 -30 -148 -84l-50 65c62 69 123 118 198 118c80 0 135 -93 214 -93c64 0 104 29 155 83z" />
    <glyph glyph-name="uni007F" 
 />
    <glyph glyph-name="uni0080" 
 />
    <glyph glyph-name="uni0081" 
 />
    <glyph glyph-name="uni0082" 
 />
    <glyph glyph-name="uni0083" 
 />
    <glyph glyph-name="uni0084" 
 />
    <glyph glyph-name="uni0085" unicode="&#x85;" 
 />
    <glyph glyph-name="uni0086" 
 />
    <glyph glyph-name="uni0087" 
 />
    <glyph glyph-name="uni0088" 
 />
    <glyph glyph-name="uni0089" 
 />
    <glyph glyph-name="uni008A" 
 />
    <glyph glyph-name="uni008B" 
 />
    <glyph glyph-name="uni008C" 
 />
    <glyph glyph-name="uni008D" 
 />
    <glyph glyph-name="uni008E" 
 />
    <glyph glyph-name="uni008F" 
 />
    <glyph glyph-name="uni0090" 
 />
    <glyph glyph-name="uni0091" 
 />
    <glyph glyph-name="uni0092" 
 />
    <glyph glyph-name="uni0093" 
 />
    <glyph glyph-name="uni0094" 
 />
    <glyph glyph-name="uni0095" 
 />
    <glyph glyph-name="uni0096" 
 />
    <glyph glyph-name="uni0097" 
 />
    <glyph glyph-name="uni0098" 
 />
    <glyph glyph-name="uni0099" 
 />
    <glyph glyph-name="uni009A" 
 />
    <glyph glyph-name="uni009B" 
 />
    <glyph glyph-name="uni009C" 
 />
    <glyph glyph-name="uni009D" 
 />
    <glyph glyph-name="uni009E" 
 />
    <glyph glyph-name="uni009F" 
 />
    <glyph glyph-name="uni00A0" unicode="&#xa0;" 
 />
    <glyph glyph-name="exclamdown" unicode="&#xa1;" 
 />
    <glyph glyph-name="cent" unicode="&#xa2;" 
 />
    <glyph glyph-name="sterling" unicode="&#xa3;" 
 />
    <glyph glyph-name="currency" unicode="&#xa4;" 
 />
    <glyph glyph-name="yen" unicode="&#xa5;" 
 />
    <glyph glyph-name="brokenbar" unicode="&#xa6;" 
 />
    <glyph glyph-name="section" unicode="&#xa7;" 
 />
    <glyph glyph-name="dieresis" unicode="&#xa8;" 
d="M798 1220c0 -62 -49 -113 -111 -113s-111 51 -111 113s49 112 111 112s111 -50 111 -112zM422 1220c0 -62 -49 -113 -111 -113s-110 51 -110 113s48 112 110 112s111 -50 111 -112z" />
    <glyph glyph-name="copyright" unicode="&#xa9;" 
 />
    <glyph glyph-name="ordfeminine" unicode="&#xaa;" 
 />
    <glyph glyph-name="guillemotleft" unicode="&#xab;" 
d="M428 498v13l404 427l89 -85l-322 -341v-15l302 -352l-89 -85zM98 498v13l384 427l89 -85l-302 -341v-15l302 -352l-89 -85z" />
    <glyph glyph-name="logicalnot" unicode="&#xac;" 
 />
    <glyph glyph-name="uni00AD" unicode="&#xad;" 
 />
    <glyph glyph-name="registered" unicode="&#xae;" 
 />
    <glyph glyph-name="macron" unicode="&#xaf;" 
 />
    <glyph glyph-name="degree" unicode="&#xb0;" 
d="M430 1197c0 -38 30 -67 68 -67s67 29 67 67s-29 68 -67 68s-68 -30 -68 -68zM370 1197c0 70 57 127 128 127s129 -57 129 -127s-58 -126 -129 -126s-128 56 -128 126z" />
    <glyph glyph-name="plusminus" unicode="&#xb1;" 
 />
    <glyph glyph-name="uni00B2" unicode="&#xb2;" 
 />
    <glyph glyph-name="uni00B3" unicode="&#xb3;" 
 />
    <glyph glyph-name="acute" unicode="&#xb4;" 
d="M384 1083l250 248l125 -65l-222 -183h-153z" />
    <glyph glyph-name="uni00B5" unicode="&#xb5;" 
 />
    <glyph glyph-name="paragraph" unicode="&#xb6;" 
 />
    <glyph glyph-name="periodcentered" unicode="&#xb7;" 
 />
    <glyph glyph-name="cedilla" unicode="&#xb8;" 
d="M454 36h146l-50 -198h-96v198z" />
    <glyph glyph-name="uni00B9" unicode="&#xb9;" 
 />
    <glyph glyph-name="ordmasculine" unicode="&#xba;" 
 />
    <glyph glyph-name="guillemotright" unicode="&#xbb;" 
d="M568 498v13l-384 427l-89 -85l302 -341v-15l-302 -352l89 -85zM898 498v13l-384 427l-89 -85l302 -341v-15l-302 -352l89 -85z" />
    <glyph glyph-name="onequarter" unicode="&#xbc;" 
 />
    <glyph glyph-name="onehalf" unicode="&#xbd;" 
 />
    <glyph glyph-name="threequarters" unicode="&#xbe;" 
 />
    <glyph glyph-name="questiondown" unicode="&#xbf;" 
d="M466 1208c0 69 54 125 123 125s123 -56 123 -125s-54 -126 -123 -126s-123 57 -123 126zM658 880c0 0 13 -141 -95 -254c-113 -118 -151 -125 -189 -186s-38 -98 -38 -154c3 -72 64 -123 151 -149s178 -15 250 36c69 49 70 120 70 164l117 28c31 -82 -15 -228 -110 -292
s-243 -92 -366 -56c-120 36 -215 107 -243 238c-20 100 2 170 56 249c56 82 100 95 208 215c44 49 45 112 53 163z" />
    <glyph glyph-name="Agrave" unicode="&#xc0;" 
d="M575 1453h-153l-222 183l125 66zM417 1331h164l335 -1331h-133l-92 361h-384l-92 -361h-133zM499 1134l-2 -15l-157 -627h318l-156 624z" />
    <glyph glyph-name="Aacute" unicode="&#xc1;" 
d="M423 1453l250 248l125 -65l-222 -183h-153zM417 1331h164l335 -1331h-133l-92 361h-384l-92 -361h-133zM499 1134l-2 -15l-157 -627h318l-156 624z" />
    <glyph glyph-name="Acircumflex" unicode="&#xc2;" 
d="M315 1453h-153l250 249h175l250 -249h-153l-184 152zM417 1331h164l335 -1331h-133l-92 361h-384l-92 -361h-133zM499 1134l-2 -15l-157 -627h318l-156 624z" />
    <glyph glyph-name="Atilde" unicode="&#xc3;" 
d="M808 1562c-54 -57 -129 -109 -206 -109c-75 0 -157 90 -214 90c-52 0 -91 -30 -148 -84l-50 65c62 69 123 118 198 118c80 0 135 -93 214 -93c64 0 104 29 155 83zM417 1331h164l335 -1331h-133l-92 361h-384l-92 -361h-133zM499 1134l-2 -15l-157 -627h318l-156 624z
" />
    <glyph glyph-name="Adieresis" unicode="&#xc4;" 
d="M798 1566c0 -62 -49 -113 -111 -113s-111 51 -111 113s49 112 111 112s111 -50 111 -112zM422 1566c0 -62 -49 -113 -111 -113s-110 51 -110 113s48 112 110 112s111 -50 111 -112zM417 1331h164l335 -1331h-133l-92 361h-384l-92 -361h-133zM499 1134l-2 -15l-157 -627
h318l-156 624z" />
    <glyph glyph-name="Aring" unicode="&#xc5;" 
d="M431 1545c0 -38 30 -67 68 -67s67 29 67 67s-29 68 -67 68s-68 -30 -68 -68zM371 1545c0 70 57 127 128 127s129 -57 129 -127s-58 -126 -129 -126s-128 56 -128 126zM417 1331h164l335 -1331h-133l-92 361h-384l-92 -361h-133zM499 1134l-2 -15l-157 -627h318l-156 624z
" />
    <glyph glyph-name="AE" unicode="&#xc6;" 
 />
    <glyph glyph-name="Ccedilla" unicode="&#xc7;" 
d="M525 1339c74 0 151 -15 223 -64s127 -130 163 -248l-115 -31c-28 97 -79 140 -123 171s-92 41 -148 41c-105 0 -197 -54 -266 -210c-31 -69 -47 -187 -47 -307s21 -243 49 -315c61 -156 149 -235 282 -235c123 0 230 115 245 225l128 -18
c-22.932 -153.465 -142.322 -299.151 -305.342 -331.4h0.342l-50 -198h-96v198h6.909c-152.925 29.0584 -266.522 151.302 -330.909 311.4c-38 97 -59 230 -59 361s13 263 59 363c84 187 228 287 384 287z" />
    <glyph glyph-name="Egrave" unicode="&#xc8;" 
d="M583 1453h-153l-222 183l125 66zM113 1331h787v-128h-657v-458h532v-131h-532v-483h654v-131h-784v1331z" />
    <glyph glyph-name="Eacute" unicode="&#xc9;" 
d="M430 1453l250 248l125 -65l-222 -183h-153zM113 1331h787v-128h-657v-458h532v-131h-532v-483h654v-131h-784v1331z" />
    <glyph glyph-name="Ecircumflex" unicode="&#xca;" 
d="M322 1453h-153l250 249h175l250 -249h-153l-184 152zM113 1331h787v-128h-657v-458h532v-131h-532v-483h654v-131h-784v1331z" />
    <glyph glyph-name="Edieresis" unicode="&#xcb;" 
d="M805 1566c0 -62 -49 -113 -111 -113s-111 51 -111 113s49 112 111 112s111 -50 111 -112zM429 1566c0 -62 -49 -113 -111 -113s-110 51 -110 113s48 112 110 112s111 -50 111 -112zM113 1331h787v-128h-657v-458h532v-131h-532v-483h654v-131h-784v1331z" />
    <glyph glyph-name="Igrave" unicode="&#xcc;" 
d="M575 1453h-153l-222 183l125 66zM87 1331h824v-130h-348v-1070h348v-131h-824v131h348v1070h-348v130z" />
    <glyph glyph-name="Iacute" unicode="&#xcd;" 
d="M423 1453l250 248l125 -65l-222 -183h-153zM87 1331h824v-130h-348v-1070h348v-131h-824v131h348v1070h-348v130z" />
    <glyph glyph-name="Icircumflex" unicode="&#xce;" 
d="M315 1453h-153l250 249h175l250 -249h-153l-184 152zM87 1331h824v-130h-348v-1070h348v-131h-824v131h348v1070h-348v130z" />
    <glyph glyph-name="Idieresis" unicode="&#xcf;" 
d="M798 1566c0 -62 -49 -113 -111 -113s-111 51 -111 113s49 112 111 112s111 -50 111 -112zM422 1566c0 -62 -49 -113 -111 -113s-110 51 -110 113s48 112 110 112s111 -50 111 -112zM87 1331h824v-130h-348v-1070h348v-131h-824v131h348v1070h-348v130z" />
    <glyph glyph-name="Eth" unicode="&#xd0;" 
d="M511 1188c-82 20 -177 16 -256 13l-1.342 -480h236.342v-126h-236.694l-1.306 -467c36 -3 157 -7 241 13c113 28 192 74 246 156s87 210 87 392c0 179 -41 292 -97 366s-134 113 -218 133zM247 1331c105 0 193 2 295 -18c105 -26 212 -79 289 -181s123 -246 123 -443
c0 -195 -34 -351 -108 -464s-183.958 -186.993 -322 -210c-90 -15 -200 -15 -289 -15h-111v595h-124v126h124v610h123z" />
    <glyph glyph-name="Ntilde" unicode="&#xd1;" 
d="M808 1562c-54 -57 -129 -109 -206 -109c-75 0 -157 90 -214 90c-52 0 -91 -30 -148 -84l-50 65c62 69 123 118 198 118c80 0 135 -93 214 -93c64 0 104 29 155 83zM202 1331l586 -1067v1067h131v-1331h-123l-586 1068v-1068h-131v1331h123z" />
    <glyph glyph-name="Ograve" unicode="&#xd2;" 
d="M578 1431h-153l-222 183l125 66zM499 1331c148 0 264 -87 328 -210s89 -281 89 -453c0 -174 -27 -333 -94 -456s-180 -209 -323 -209s-258 86 -325 209s-92 282 -92 456c0 172 26 330 90 453s179 210 327 210zM499 1203c-102 0 -163 -48 -212 -143s-75 -233 -75 -392
s26 -299 77 -394s113 -141 210 -141s159 46 210 141s77 235 77 394s-25 297 -74 392s-111 143 -213 143z" />
    <glyph glyph-name="Oacute" unicode="&#xd3;" 
d="M423 1453l250 248l125 -65l-222 -183h-153zM499 1331c148 0 264 -87 328 -210s89 -281 89 -453c0 -174 -27 -333 -94 -456s-180 -209 -323 -209s-258 86 -325 209s-92 282 -92 456c0 172 26 330 90 453s179 210 327 210zM499 1203c-102 0 -163 -48 -212 -143
s-75 -233 -75 -392s26 -299 77 -394s113 -141 210 -141s159 46 210 141s77 235 77 394s-25 297 -74 392s-111 143 -213 143z" />
    <glyph glyph-name="Ocircumflex" unicode="&#xd4;" 
d="M315 1453h-153l250 249h175l250 -249h-153l-184 152zM499 1331c148 0 264 -87 328 -210s89 -281 89 -453c0 -174 -27 -333 -94 -456s-180 -209 -323 -209s-258 86 -325 209s-92 282 -92 456c0 172 26 330 90 453s179 210 327 210zM499 1203c-102 0 -163 -48 -212 -143
s-75 -233 -75 -392s26 -299 77 -394s113 -141 210 -141s159 46 210 141s77 235 77 394s-25 297 -74 392s-111 143 -213 143z" />
    <glyph glyph-name="Otilde" unicode="&#xd5;" 
d="M808 1562c-54 -57 -129 -109 -206 -109c-75 0 -157 90 -214 90c-52 0 -91 -30 -148 -84l-50 65c62 69 123 118 198 118c80 0 135 -93 214 -93c64 0 104 29 155 83zM499 1331c148 0 264 -87 328 -210s89 -281 89 -453c0 -174 -27 -333 -94 -456s-180 -209 -323 -209
s-258 86 -325 209s-92 282 -92 456c0 172 26 330 90 453s179 210 327 210zM499 1203c-102 0 -163 -48 -212 -143s-75 -233 -75 -392s26 -299 77 -394s113 -141 210 -141s159 46 210 141s77 235 77 394s-25 297 -74 392s-111 143 -213 143z" />
    <glyph glyph-name="Odieresis" unicode="&#xd6;" 
d="M798 1566c0 -62 -49 -113 -111 -113s-111 51 -111 113s49 112 111 112s111 -50 111 -112zM422 1566c0 -62 -49 -113 -111 -113s-110 51 -110 113s48 112 110 112s111 -50 111 -112zM499 1331c148 0 264 -87 328 -210s89 -281 89 -453c0 -174 -27 -333 -94 -456
s-180 -209 -323 -209s-258 86 -325 209s-92 282 -92 456c0 172 26 330 90 453s179 210 327 210zM499 1203c-102 0 -163 -48 -212 -143s-75 -233 -75 -392s26 -299 77 -394s113 -141 210 -141s159 46 210 141s77 235 77 394s-25 297 -74 392s-111 143 -213 143z" />
    <glyph glyph-name="multiply" unicode="&#xd7;" 
 />
    <glyph glyph-name="Oslash" unicode="&#xd8;" 
 />
    <glyph glyph-name="Ugrave" unicode="&#xd9;" 
d="M575.5 1453h-153l-222 183l125 66zM82 1331h130v-763c0 -159 29 -271 75 -338s107 -99 212 -99s167 32 213 99s74 179 74 338v763h130v-763c0 -174 -28 -310 -97 -412s-184 -156 -320 -156s-251 54 -320 156s-97 238 -97 412v763z" />
    <glyph glyph-name="Uacute" unicode="&#xda;" 
d="M422.5 1453l250 248l125 -65l-222 -183h-153zM82 1331h130v-763c0 -159 29 -271 75 -338s107 -99 212 -99s167 32 213 99s74 179 74 338v763h130v-763c0 -174 -28 -310 -97 -412s-184 -156 -320 -156s-251 54 -320 156s-97 238 -97 412v763z" />
    <glyph glyph-name="Ucircumflex" unicode="&#xdb;" 
d="M314.5 1453h-153l250 249h175l250 -249h-153l-184 152zM82 1331h130v-763c0 -159 29 -271 75 -338s107 -99 212 -99s167 32 213 99s74 179 74 338v763h130v-763c0 -174 -28 -310 -97 -412s-184 -156 -320 -156s-251 54 -320 156s-97 238 -97 412v763z" />
    <glyph glyph-name="Udieresis" unicode="&#xdc;" 
d="M797.5 1566c0 -62 -49 -113 -111 -113s-111 51 -111 113s49 112 111 112s111 -50 111 -112zM421.5 1566c0 -62 -49 -113 -111 -113s-110 51 -110 113s48 112 110 112s111 -50 111 -112zM82 1331h130v-763c0 -159 29 -271 75 -338s107 -99 212 -99s167 32 213 99
s74 179 74 338v763h130v-763c0 -174 -28 -310 -97 -412s-184 -156 -320 -156s-251 54 -320 156s-97 238 -97 412v763z" />
    <glyph glyph-name="Yacute" unicode="&#xdd;" 
d="M423 1456l250 248l125 -65l-222 -183h-153zM90 1334h140l269 -602l266 602h144l-346 -745v-589h-128v589z" />
    <glyph glyph-name="Thorn" unicode="&#xde;" 
 />
    <glyph glyph-name="germandbls" unicode="&#xdf;" 
 />
    <glyph glyph-name="agrave" unicode="&#xe0;" 
d="M588 1085h-153l-222 183l125 66zM205 891c51 61 143 107 276 107s228 -51 277 -135c41 -69 36 -190 36 -290v-299c0 0 -3 -72 10 -100s27 -54 92 -64v-113c-136 8 -182 90 -182 90h-5s-95 -87 -292 -87c-143 0 -240 77 -281 161s-36 161 -16 220c41 115 136 174 233 192
c51 8 102 8 156 8c49 0 103 -2 154 -2c0 97 2 184 -18 220c-26 44 -59 69 -164 69s-148 -31 -176 -62s-39 -74 -44 -110l-120 21c0 41 13 113 64 174zM625 179c28 23 35 49 38 59s0 210 0 210c-97 0 -192 10 -289 -3c-74 -13 -114 -29 -133 -107c-5 -21 -7 -80 15 -126
c16 -34 56 -81 164 -84c113 -3 174 23 205 51z" />
    <glyph glyph-name="ae" unicode="&#xe6;" 
 />
    <glyph glyph-name="ccedilla" unicode="&#xe7;" 
d="M507 998c102 0 190 -35 251 -94s94 -141 102 -228l-128 -10c-5 61 -30 113 -66 146s-85 56 -159 56c-105 0 -154 -41 -195 -110s-56 -167 -56 -259c0 -90 23 -187 67 -256s104 -112 209 -112c72 0 116 20 149 51s53 76 61 130l128 -20c-13 -74 -46 -148 -102 -202
c-42.429 -40.9134 -100.357 -71.4941 -168.13 -83.9133l-49.87 -197.487h-96v198h5.626c-110.168 20.6004 -194.164 87.1569 -244.626 167.4c-61 97 -87 217 -87 325s16 228 72 325s164 174 307 174z" />
    <glyph glyph-name="egrave" unicode="&#xe8;" 
d="M618 1085h-153l-222 183l125 66zM251 445c5 -84 23 -164 59 -215c41 -61 97 -94 187 -99c82 0 133 22 169 53s56 69 69 110l125 -38c-18 -56 -53 -121 -112 -172s-143 -84 -251 -84h-3c-128 5 -231 67 -292 159s-84 205 -84 325c0 118 15 243 71 340s162 169 305 172h3
c97 -3 197 -26 271 -105s113 -207 110 -384v-62h-627zM453 860c-92 -15 -187 -105 -197 -287h489c-5 118 -28 177 -69 228s-131 74 -223 59z" />
    <glyph glyph-name="eacute" unicode="&#xe9;" 
d="M375 1084l250 248l125 -65l-222 -183h-153zM251 445c5 -84 23 -164 59 -215c41 -61 97 -94 187 -99c82 0 133 22 169 53s56 69 69 110l125 -38c-18 -56 -53 -121 -112 -172s-143 -84 -251 -84h-3c-128 5 -231 67 -292 159s-84 205 -84 325c0 118 15 243 71 340
s162 169 305 172h3c97 -3 197 -26 271 -105s113 -207 110 -384v-62h-627zM453 860c-92 -15 -187 -105 -197 -287h489c-5 118 -28 177 -69 228s-131 74 -223 59z" />
    <glyph glyph-name="ecircumflex" unicode="&#xea;" 
d="M316 1084h-153l250 249h175l250 -249h-153l-184 152zM251 445c5 -84 23 -164 59 -215c41 -61 97 -94 187 -99c82 0 133 22 169 53s56 69 69 110l125 -38c-18 -56 -53 -121 -112 -172s-143 -84 -251 -84h-3c-128 5 -231 67 -292 159s-84 205 -84 325c0 118 15 243 71 340
s162 169 305 172h3c97 -3 197 -26 271 -105s113 -207 110 -384v-62h-627zM453 860c-92 -15 -187 -105 -197 -287h489c-5 118 -28 177 -69 228s-131 74 -223 59z" />
    <glyph glyph-name="edieresis" unicode="&#xeb;" 
d="M800 1264c0 -62 -49 -113 -111 -113s-111 51 -111 113s49 112 111 112s111 -50 111 -112zM424 1264c0 -62 -49 -113 -111 -113s-110 51 -110 113s48 112 110 112s111 -50 111 -112zM251 445c5 -84 23 -164 59 -215c41 -61 97 -94 187 -99c82 0 133 22 169 53
s56 69 69 110l125 -38c-18 -56 -53 -121 -112 -172s-143 -84 -251 -84h-3c-128 5 -231 67 -292 159s-84 205 -84 325c0 118 15 243 71 340s162 169 305 172h3c97 -3 197 -26 271 -105s113 -207 110 -384v-62h-627zM453 860c-92 -15 -187 -105 -197 -287h489
c-5 118 -28 177 -69 228s-131 74 -223 59z" />
    <glyph glyph-name="igrave" unicode="&#xec;" 
d="M575.5 1151h-153l-222 183l125 66zM136 998h427v-865h351v-133h-830v133h351v732h-299v133z" />
    <glyph glyph-name="eth" unicode="&#xf0;" 
 />
    <glyph glyph-name="ntilde" unicode="&#xf1;" 
 />
    <glyph glyph-name="ograve" unicode="&#xf2;" 
d="M575.5 1120h-153l-222 183l125 66zM499 998c146 0 257 -74 318 -171s89 -217 89 -325s-28 -233 -89 -330s-174 -172 -320 -172s-259 75 -320 172s-85 222 -85 330s26 228 87 325s174 171 320 171zM499 868c-105 0 -163 -44 -207 -113s-69 -166 -69 -253s20 -192 64 -261
s102 -113 210 -113s166 44 210 113s69 174 69 261s-23 184 -67 253s-105 113 -210 113z" />
    <glyph glyph-name="oacute" unicode="&#xf3;" 
d="M422.5 1120l250 248l125 -65l-222 -183h-153zM499 998c146 0 257 -74 318 -171s89 -217 89 -325s-28 -233 -89 -330s-174 -172 -320 -172s-259 75 -320 172s-85 222 -85 330s26 228 87 325s174 171 320 171zM499 868c-105 0 -163 -44 -207 -113s-69 -166 -69 -253
s20 -192 64 -261s102 -113 210 -113s166 44 210 113s69 174 69 261s-23 184 -67 253s-105 113 -210 113z" />
    <glyph glyph-name="ocircumflex" unicode="&#xf4;" 
d="M314.5 1120h-153l250 249h175l250 -249h-153l-184 152zM499 998c146 0 257 -74 318 -171s89 -217 89 -325s-28 -233 -89 -330s-174 -172 -320 -172s-259 75 -320 172s-85 222 -85 330s26 228 87 325s174 171 320 171zM499 868c-105 0 -163 -44 -207 -113
s-69 -166 -69 -253s20 -192 64 -261s102 -113 210 -113s166 44 210 113s69 174 69 261s-23 184 -67 253s-105 113 -210 113z" />
    <glyph glyph-name="otilde" unicode="&#xf5;" 
d="M808 1229c-54 -57 -129 -109 -206 -109c-75 0 -157 90 -214 90c-52 0 -91 -30 -148 -84l-50 65c62 69 123 118 198 118c80 0 135 -93 214 -93c64 0 104 29 155 83zM499 998c146 0 257 -74 318 -171s89 -217 89 -325s-28 -233 -89 -330s-174 -172 -320 -172
s-259 75 -320 172s-85 222 -85 330s26 228 87 325s174 171 320 171zM499 868c-105 0 -163 -44 -207 -113s-69 -166 -69 -253s20 -192 64 -261s102 -113 210 -113s166 44 210 113s69 174 69 261s-23 184 -67 253s-105 113 -210 113z" />
    <glyph glyph-name="odieresis" unicode="&#xf6;" 
d="M797.5 1233c0 -62 -49 -113 -111 -113s-111 51 -111 113s49 112 111 112s111 -50 111 -112zM421.5 1233c0 -62 -49 -113 -111 -113s-110 51 -110 113s48 112 110 112s111 -50 111 -112zM499 998c146 0 257 -74 318 -171s89 -217 89 -325s-28 -233 -89 -330
s-174 -172 -320 -172s-259 75 -320 172s-85 222 -85 330s26 228 87 325s174 171 320 171zM499 868c-105 0 -163 -44 -207 -113s-69 -166 -69 -253s20 -192 64 -261s102 -113 210 -113s166 44 210 113s69 174 69 261s-23 184 -67 253s-105 113 -210 113z" />
    <glyph glyph-name="divide" unicode="&#xf7;" 
 />
    <glyph glyph-name="oslash" unicode="&#xf8;" 
 />
    <glyph glyph-name="ugrave" unicode="&#xf9;" 
d="M575.5 1120h-153l-222 183l125 66zM471 -3c-120 0 -205 54 -266 149s-62 202 -62 307v545h131v-545c0 -97 8 -177 36 -228s64 -84 148 -97c115 -18 266 13 266 236v634h131v-998h-110l-21 82c-61 -51 -133 -85 -253 -85z" />
    <glyph glyph-name="uacute" unicode="&#xfa;" 
d="M422.5 1120l250 248l125 -65l-222 -183h-153zM471 -3c-120 0 -205 54 -266 149s-62 202 -62 307v545h131v-545c0 -97 8 -177 36 -228s64 -84 148 -97c115 -18 266 13 266 236v634h131v-998h-110l-21 82c-61 -51 -133 -85 -253 -85z" />
    <glyph glyph-name="ucircumflex" unicode="&#xfb;" 
d="M314.5 1120h-153l250 249h175l250 -249h-153l-184 152zM471 -3c-120 0 -205 54 -266 149s-62 202 -62 307v545h131v-545c0 -97 8 -177 36 -228s64 -84 148 -97c115 -18 266 13 266 236v634h131v-998h-110l-21 82c-61 -51 -133 -85 -253 -85z" />
    <glyph glyph-name="udieresis" unicode="&#xfc;" 
d="M797.5 1233c0 -62 -49 -113 -111 -113s-111 51 -111 113s49 112 111 112s111 -50 111 -112zM421.5 1233c0 -62 -49 -113 -111 -113s-110 51 -110 113s48 112 110 112s111 -50 111 -112zM471 -3c-120 0 -205 54 -266 149s-62 202 -62 307v545h131v-545
c0 -97 8 -177 36 -228s64 -84 148 -97c115 -18 266 13 266 236v634h131v-998h-110l-21 82c-61 -51 -133 -85 -253 -85z" />
    <glyph glyph-name="yacute" unicode="&#xfd;" 
 />
    <glyph glyph-name="thorn" unicode="&#xfe;" 
 />
    <glyph glyph-name="ydieresis" unicode="&#xff;" 
 />
    <glyph glyph-name="uni0000" 
d="M499 809c77 0 138 -64 138 -141s-61 -138 -138 -138s-138 61 -138 138s61 141 138 141z" />
    <glyph glyph-name="uni0001" 
 />
    <glyph glyph-name="uni0002" 
 />
    <glyph glyph-name="uni0003" 
 />
    <glyph glyph-name="uni0004" 
 />
    <glyph glyph-name="uni0005" 
 />
    <glyph glyph-name="uni0006" 
 />
    <glyph glyph-name="uni0007" 
 />
    <glyph glyph-name="uni0008" 
 />
    <glyph glyph-name="uni0009" unicode="&#x9;" 
 />
    <glyph glyph-name="uni000A" unicode="&#xa;" 
 />
    <glyph glyph-name="uni000B" 
 />
    <glyph glyph-name="uni000C" 
 />
    <glyph glyph-name="uni000D" unicode="&#xd;" 
 />
    <glyph glyph-name="uni000E" 
 />
    <glyph glyph-name="uni000F" 
 />
    <glyph glyph-name="uni0010" 
 />
    <glyph glyph-name="uni0011" 
 />
    <glyph glyph-name="uni0012" 
 />
    <glyph glyph-name="uni0013" 
 />
    <glyph glyph-name="uni0014" 
 />
    <glyph glyph-name="uni0015" 
 />
    <glyph glyph-name="uni0016" 
 />
    <glyph glyph-name="uni0017" 
 />
    <glyph glyph-name="uni0018" 
 />
    <glyph glyph-name="uni0019" 
 />
    <glyph glyph-name="uni001A" 
 />
    <glyph glyph-name="uni001B" 
 />
    <glyph glyph-name="uni001C" 
 />
    <glyph glyph-name="uni001D" 
 />
    <glyph glyph-name="uni001E" 
 />
    <glyph glyph-name="uni001F" 
 />
    <glyph glyph-name="space" unicode=" " 
 />
    <glyph glyph-name="exclam" unicode="!" 
d="M422 1331h149v-586l-23 -297h-103l-23 297v586zM622 125c0 -69 -54 -125 -123 -125s-123 56 -123 125s54 126 123 126s123 -57 123 -126z" />
    <glyph glyph-name="quotedbl" unicode="&#x22;" 
d="M563 1331h121v-332h-121v332zM315 1331h120v-332h-120v332z" />
    <glyph glyph-name="numbersign" unicode="#" 
d="M566 0l97 1162h113l-98 -1162h-112zM220 0l97 1162h113l-97 -1162h-113zM136 893h775v-112h-775v112zM84 379h789v-113h-789v113z" />
    <glyph glyph-name="dollar" unicode="$" 
d="M451 1454h122v-130c204 -29 274 -192 274 -192l-112 -64s-30 101 -162 127v-475c176 -78 281 -160 300 -290c2.324 -17.569 3.473 -35.243 3.473 -52.877c0 -172.058 -109.366 -340.377 -303.473 -372.123v-146h-122v143c-225 18 -290 142 -323 208l115 59
c47 -77 80 -128 208 -137v499c-114 50 -297 153 -300 329c-0.02 1.435 -0.03 2.875 -0.03 4.319c0 144.391 99.04 328.991 300.03 359.681v130zM451 774v420c-99.592 -22.68 -169.042 -103.7 -169.042 -225.795c0 -1.727 0.014 -3.462 0.042 -5.205
c0 -0.84 -0.008 -1.805 -0.008 -2.889c0 -23.456 3.654 -102.956 169.008 -186.111zM573 586v-447c122.868 30.938 174.633 142.356 174.633 236.869c0 12.408 -0.892 24.526 -2.633 36.131c-6 41 -22 98 -172 174z" />
    <glyph glyph-name="percent" unicode="%" 
d="M501 246c0 136 103 246 231 246s231 -110 231 -246s-103 -246 -231 -246s-231 110 -231 246zM616 246c0 -70 52 -126 117 -126s117 56 117 126s-52 126 -117 126s-117 -56 -117 -126zM900 1119l-644 -912l-162 1l644 912zM36 1085c0 136 103 246 231 246
s231 -110 231 -246s-103 -246 -231 -246s-231 110 -231 246zM151 1085c0 -70 52 -126 117 -126s117 56 117 126s-52 126 -117 126s-117 -56 -117 -126z" />
    <glyph glyph-name="ampersand" unicode="&#x26;" 
d="M591 1037c-7 38 -25 178 -138 178c-167 0 -181 -142 -95 -273l294 -465c26 85 61 221 61 221l119 -34l-96 -320s76 -133 107 -222c23 -66 25 -122 25 -122h-116s-9 58 -18 91c-14 54 -51 111 -51 111c-41 -74 -104 -190 -270 -202c-190 -14 -262.41 45.4053 -334 149
c-85 123 -81 316 46 471c70 80 195 163 195 163l-68 99c-130 190 -96 454 197 450c235 -3 253 -218 254 -275zM412 121c124 20 193 206 193 206l-229 350c-25 -15 -113 -81 -156 -132c-66 -78 -105 -214 -38 -324c38 -62 107 -120 230 -100z" />
    <glyph glyph-name="quotesingle" unicode="'" 
d="M439 1331h120v-332h-120v332z" />
    <glyph glyph-name="parenleft" unicode="(" 
d="M195 660c-1 377 158 799 513 818v-113c-213 -18 -381 -391 -381 -702c0 -315 171 -693 384 -711v-112c-355 19 -515 442 -516 820z" />
    <glyph glyph-name="parenright" unicode=")" 
d="M803 660c-1 -378 -161 -801 -516 -820v112c213 18 384 396 384 711c0 311 -168 684 -381 702v113c355 -19 514 -441 513 -818z" />
    <glyph glyph-name="asterisk" unicode="*" 
d="M547 1353l-6 -155l153 54l27 -84l-159 -38l93 -135l-76 -55l-80 156l-80 -156l-76 55l93 134l-159 39l27 84l153 -55l-6 155z" />
    <glyph glyph-name="plus" unicode="+" 
d="M138 402v136h293v293h136v-293h293v-136h-293v-293h-136v293h-293z" />
    <glyph glyph-name="comma" unicode="," 
d="M440 229l200 -31l-156 -360h-123z" />
    <glyph glyph-name="hyphen" unicode="-" 
d="M228 538h542v-136h-542v136z" />
    <glyph glyph-name="period" unicode="." 
d="M622 125c0 -69 -54 -125 -123 -125s-123 56 -123 125s54 126 123 126s123 -57 123 -126z" />
    <glyph glyph-name="slash" unicode="/" 
d="M27 -128l793 1460l150 -1l-793 -1460z" />
    <glyph glyph-name="zero" unicode="0" 
d="M499 1331c148 0 264 -87 328 -210s89 -281 89 -453s-27 -335 -94 -458s-180 -210 -323 -210s-258 87 -325 210s-92 286 -92 458s26 330 90 453s179 210 327 210zM499 1201c-102 0 -163 -46 -212 -141s-75 -233 -75 -392s26 -302 77 -397s113 -140 210 -140
s157 45 208 140s79 238 79 397s-25 297 -74 392s-111 141 -213 141zM499 809c77 0 138 -64 138 -141s-61 -138 -138 -138s-138 61 -138 138s61 141 138 141z" />
    <glyph glyph-name="one" unicode="1" 
d="M428 1331h142l1 -1200h351v-131h-845v131h363l2 1003c-92 -110 -175 -205 -288 -264l-59 116c133 69 243 197 333 345z" />
    <glyph glyph-name="two" unicode="2" 
d="M102 1029c15 77 62 169 157 233s253 90 376 54c120 -36 230 -125 253 -256c18 -110 3 -203 -46 -287s-127 -163 -240 -281c-154 -164 -282 -302 -341 -361h661v-131h-845l2 128s284 299 430 453c113 118 187 192 223 256s38 133 28 202s-77 125 -164 151
s-189 18 -261 -33c-69 -49 -95 -102 -105 -153z" />
    <glyph glyph-name="three" unicode="3" 
d="M625 1321c123 -33 238 -123 261 -266c23 -133 -23 -246 -110 -313c-18 -15 -37 -28 -75 -43c67 -15 162 -105 190 -207c36 -133 5 -259 -69 -349s-190 -143 -315 -143c-230 -3 -356 115 -407 223l115 56c23 -46 95 -151 292 -148c90 0 166 38 215 97s69 133 43 228
c-38 131 -179 181 -340 181l13 118s164 6 246 62c54 41 89 120 74 217c-15 87 -80 139 -167 162c-122 32 -297 -2 -350 -181l-126 26c60 272 346 322 510 280z" />
    <glyph glyph-name="four" unicode="4" 
d="M632 1331h131v-867h156v-134h-156v-330h-128v330h-556v200zM635 1113l-415 -611l-2 -38h417v649z" />
    <glyph glyph-name="five" unicode="5" 
d="M161 1331h653v-130h-535l-33 -372c79 38 194 77 325 57c120 -18 213 -75 269 -154s79 -189 79 -289c0 -202 -120 -389 -330 -433c-100 -20 -213 -20 -310 18s-177 118 -200 236l121 25c15 -74 58 -115 125 -141s159 -30 238 -12c148 31 225 153 225 307
c0 79 -17 161 -53 212s-93 88 -185 103c-164 15 -263 -23 -358 -141l-97 38z" />
    <glyph glyph-name="six" unicode="6" 
d="M412 1331h141c-49 -123 -164 -417 -225 -576c-3 -5 -15 -20 -18 -25c54 28 125 51 189 51c225 0 410 -177 410 -392s-185 -389 -410 -389c-188.805 4.49536 -410.752 137.515 -410.752 389.612c0 28.3 2.7969 58.1 8.7517 89.388c20 118 44 158 108 322
c54 143 148 382 207 530zM499 653c-154 0 -279 -118 -279 -264s125 -264 279 -264s277 118 277 264s-123 264 -277 264z" />
    <glyph glyph-name="seven" unicode="7" 
d="M77 1331h845v-138l-658 -1193h-146l660 1201h-701v130z" />
    <glyph glyph-name="eight" unicode="8" 
d="M499 1331c184 0 338 -156 338 -340c0 -108 -51 -200 -128 -261c120 -69 202 -198 202 -341c0 -215 -187 -389 -412 -389s-412 174 -412 389c0 143 82 272 202 341c-77 61 -128 155 -128 263c0 184 154 338 338 338zM499 1201c-115 0 -207 -93 -207 -208s92 -215 207 -215
s208 100 208 215s-93 208 -208 208zM499 666c-154 0 -279 -111 -279 -277s125 -264 279 -264s282 98 279 264s-125 277 -279 277z" />
    <glyph glyph-name="nine" unicode="9" 
d="M594 0h-141c49 123 164 417 225 576c3 5 15 21 18 26c-54 -28 -125 -52 -189 -52c-225 0 -410 177 -410 392s185 389 410 389c189 -4 411 -138 411 -390c0 -28 -3 -58 -9 -89c-20 -118 -44 -158 -108 -322c-54 -143 -148 -382 -207 -530zM507 678c154 0 279 118 279 264
s-125 264 -279 264s-277 -118 -277 -264s123 -264 277 -264z" />
    <glyph glyph-name="colon" unicode=":" 
d="M412 873c0 -69 -54 -125 -123 -125s-123 56 -123 125s54 125 123 125s123 -56 123 -125zM412 125c0 -69 -54 -125 -123 -125s-123 56 -123 125s54 126 123 126s123 -57 123 -126z" />
    <glyph glyph-name="semicolon" unicode=";" 
d="M146 243l200 -31l-157 -360h-122zM361 873c0 -69 -54 -125 -123 -125s-123 56 -123 125s54 125 123 125s123 -56 123 -125z" />
    <glyph glyph-name="less" unicode="&#x3c;" 
d="M148 428v143l625 427l69 -105l-563 -381v-15l563 -392l-69 -105z" />
    <glyph glyph-name="equal" unicode="=" 
d="M138 371h722v-135h-722v135zM138 740h722v-136h-722v136z" />
    <glyph glyph-name="greater" unicode="&#x3e;" 
d="M850 428l-625 -428l-69 105l563 392v15l-563 381l69 105l625 -427v-143z" />
    <glyph glyph-name="question" unicode="?" 
d="M530 125c0 -69 -54 -125 -123 -125s-123 56 -123 125s54 126 123 126s123 -57 123 -126zM338 453c0 0 -13 141 95 254c113 118 151 125 189 186s38 98 38 154c-3 72 -64 123 -151 149s-178 15 -250 -36c-69 -49 -70 -120 -70 -164l-117 -28c-31 82 15 228 110 292
s243 92 366 56c120 -36 215 -107 243 -238c20 -100 -2 -170 -56 -249c-56 -82 -100 -95 -208 -215c-44 -49 -45 -112 -53 -163z" />
    <glyph glyph-name="aacute" unicode="&#xe1;" 
d="M339 1085l250 248l125 -65l-222 -183h-153zM205 891c51 61 143 107 276 107s228 -51 277 -135c41 -69 36 -190 36 -290v-299c0 0 -3 -72 10 -100s27 -54 92 -64v-113c-136 8 -182 90 -182 90h-5s-95 -87 -292 -87c-143 0 -240 77 -281 161s-36 161 -16 220
c41 115 136 174 233 192c51 8 102 8 156 8c49 0 103 -2 154 -2c0 97 2 184 -18 220c-26 44 -59 69 -164 69s-148 -31 -176 -62s-39 -74 -44 -110l-120 21c0 41 13 113 64 174zM625 179c28 23 35 49 38 59s0 210 0 210c-97 0 -192 10 -289 -3c-74 -13 -114 -29 -133 -107
c-5 -21 -7 -80 15 -126c16 -34 56 -81 164 -84c113 -3 174 23 205 51z" />
    <glyph glyph-name="acircumflex" unicode="&#xe2;" 
d="M296 1084h-153l250 249h175l250 -249h-153l-184 152zM205 891c51 61 143 107 276 107s228 -51 277 -135c41 -69 36 -190 36 -290v-299c0 0 -3 -72 10 -100s27 -54 92 -64v-113c-136 8 -182 90 -182 90h-5s-95 -87 -292 -87c-143 0 -240 77 -281 161s-36 161 -16 220
c41 115 136 174 233 192c51 8 102 8 156 8c49 0 103 -2 154 -2c0 97 2 184 -18 220c-26 44 -59 69 -164 69s-148 -31 -176 -62s-39 -74 -44 -110l-120 21c0 41 13 113 64 174zM625 179c28 23 35 49 38 59s0 210 0 210c-97 0 -192 10 -289 -3c-74 -13 -114 -29 -133 -107
c-5 -21 -7 -80 15 -126c16 -34 56 -81 164 -84c113 -3 174 23 205 51z" />
    <glyph glyph-name="atilde" unicode="&#xe3;" 
d="M790 1193c-54 -57 -129 -109 -206 -109c-75 0 -157 90 -214 90c-52 0 -91 -30 -148 -84l-50 65c62 69 123 118 198 118c80 0 135 -93 214 -93c64 0 104 29 155 83zM205 891c51 61 143 107 276 107s228 -51 277 -135c41 -69 36 -190 36 -290v-299c0 0 -3 -72 10 -100
s27 -54 92 -64v-113c-136 8 -182 90 -182 90h-5s-95 -87 -292 -87c-143 0 -240 77 -281 161s-36 161 -16 220c41 115 136 174 233 192c51 8 102 8 156 8c49 0 103 -2 154 -2c0 97 2 184 -18 220c-26 44 -59 69 -164 69s-148 -31 -176 -62s-39 -74 -44 -110l-120 21
c0 41 13 113 64 174zM625 179c28 23 35 49 38 59s0 210 0 210c-97 0 -192 10 -289 -3c-74 -13 -114 -29 -133 -107c-5 -21 -7 -80 15 -126c16 -34 56 -81 164 -84c113 -3 174 23 205 51z" />
    <glyph glyph-name="aring" unicode="&#xe5;" 
d="M413 1209c0 -38 30 -67 68 -67s67 29 67 67s-29 68 -67 68s-68 -30 -68 -68zM353 1209c0 70 57 127 128 127s129 -57 129 -127s-58 -126 -129 -126s-128 56 -128 126zM205 891c51 61 143 107 276 107s228 -51 277 -135c41 -69 36 -190 36 -290v-299c0 0 -3 -72 10 -100
s27 -54 92 -64v-113c-136 8 -182 90 -182 90h-5s-95 -87 -292 -87c-143 0 -240 77 -281 161s-36 161 -16 220c41 115 136 174 233 192c51 8 102 8 156 8c49 0 103 -2 154 -2c0 97 2 184 -18 220c-26 44 -59 69 -164 69s-148 -31 -176 -62s-39 -74 -44 -110l-120 21
c0 41 13 113 64 174zM625 179c28 23 35 49 38 59s0 210 0 210c-97 0 -192 10 -289 -3c-74 -13 -114 -29 -133 -107c-5 -21 -7 -80 15 -126c16 -34 56 -81 164 -84c113 -3 174 23 205 51z" />
    <glyph glyph-name="adieresis" unicode="&#xe4;" 
d="M780 1244c0 -62 -49 -113 -111 -113s-111 51 -111 113s49 112 111 112s111 -50 111 -112zM404 1244c0 -62 -49 -113 -111 -113s-110 51 -110 113s48 112 110 112s111 -50 111 -112zM205 891c51 61 143 107 276 107s228 -51 277 -135c41 -69 36 -190 36 -290v-299
c0 0 -3 -72 10 -100s27 -54 92 -64v-113c-136 8 -182 90 -182 90h-5s-95 -87 -292 -87c-143 0 -240 77 -281 161s-36 161 -16 220c41 115 136 174 233 192c51 8 102 8 156 8c49 0 103 -2 154 -2c0 97 2 184 -18 220c-26 44 -59 69 -164 69s-148 -31 -176 -62
s-39 -74 -44 -110l-120 21c0 41 13 113 64 174zM625 179c28 23 35 49 38 59s0 210 0 210c-97 0 -192 10 -289 -3c-74 -13 -114 -29 -133 -107c-5 -21 -7 -80 15 -126c16 -34 56 -81 164 -84c113 -3 174 23 205 51z" />
    <glyph glyph-name="iacute" unicode="&#xed;" 
d="M422.5 1161l250 248l125 -65l-222 -183h-153zM136 998h427v-865h351v-133h-830v133h351v732h-299v133z" />
    <glyph glyph-name="icircumflex" unicode="&#xee;" 
d="M314.5 1170h-153l250 249h175l250 -249h-153l-184 152zM136 998h427v-865h351v-133h-830v133h351v732h-299v133z" />
    <glyph glyph-name="idieresis" unicode="&#xef;" 
d="M797.5 1325c0 -62 -49 -113 -111 -113s-111 51 -111 113s49 112 111 112s111 -50 111 -112zM421.5 1325c0 -62 -49 -113 -111 -113s-110 51 -110 113s48 112 110 112s111 -50 111 -112zM136 998h427v-865h351v-133h-830v133h351v732h-299v133z" />
    <glyph glyph-name="Euro" unicode="&#x20ac;" 
d="M577 1339c74 0 151 -15 223 -64s127 -130 163 -248l-115 -31c-28 97 -79 140 -123 171s-92 41 -148 41c-105 0 -197 -54 -266 -210c-19 -43 -32 -102 -40 -171l363 25v-117l-370 -26v-18c0 -35 2 -70 5 -105h365v-116h-348c8 -36 17 -68 27 -94
c61 -156 149 -235 282 -235c123 0 230 115 245 225l128 -18c-26 -174 -176 -338 -373 -338c-189 0 -328 134 -402 318c-16 42 -29 90 -39 142h-132v116h116c-3 34 -4 68 -4 103v12l-112 -8v116l117 9c7 86 23 166 54 234c84 187 228 287 384 287z" />
    <glyph glyph-name="emdash" unicode="&#x2014;" 
d="M0 538h996v-136h-996v136z" />
    <glyph glyph-name="endash" unicode="&#x2013;" 
d="M128 538h742v-136h-742v136z" />
    <glyph glyph-name="dotlessi" unicode="&#x131;" 
d="M136 998h427v-865h351v-133h-830v133h351v732h-299v133z" />
    <glyph glyph-name="uni0243" unicode="&#x243;" 
d="M237 1205v-450h274c87 0 144 17 182 53s61 90 61 180c0 56 -20 110 -56 148s-92 69 -187 69h-274zM107 1333c0 0 119 1 239 1c60 0 120 0 165 -1c123 0 218 -40 282 -107s89 -154 89 -238c0 -115 -30 -210 -99 -274c-10 -10 -21 -13 -26 -16c5 -3 16 -2 26 -7
c20 -13 38 -26 56 -41c72 -67 113 -161 113 -274c0 -110 -33 -207 -100 -274s-166 -100 -279 -100h-466v302h-107v126h107v903zM235 304v-174h338c87 0 149 26 187 64s64 98 64 182c0 82 -26 135 -70 176s-112 67 -202 67h-317v-189h255v-126h-255z" />
    <glyph glyph-name="uni02BA" unicode="&#x2ba;" 
d="M563 1331h121v-332h-121v332zM315 1331h120v-332h-120v332z" />
    <glyph glyph-name="afii57929" unicode="&#x2bc;" 
d="M439 1331h120v-332h-120v332z" />
    <glyph glyph-name="quoteright" unicode="&#x2019;" 
d="M440 1389l200 -31l-156 -360h-123z" />
    <glyph glyph-name="quoteleft" unicode="&#x2018;" 
d="M613 1083h-153l-222 183l125 66z" />
    <glyph glyph-name="quotedblleft" unicode="&#x201c;" 
d="M697 1360l-160 -31l126 -331h93zM417 1304l-160 -31l196 -275h93z" />
    <glyph glyph-name="quotedblright" unicode="&#x201d;" 
d="M299 1360l160 -31l-126 -331h-93zM579 1304l160 -31l-196 -275h-93z" />
    <glyph glyph-name="uni2090" unicode="&#x2090;" 
d="M205 891c51 61 143 107 276 107s228 -51 277 -135c41 -69 36 -190 36 -290v-299c0 0 -3 -72 10 -100s27 -54 92 -64v-113c-136 8 -182 90 -182 90h-5s-95 -87 -292 -87c-143 0 -240 77 -281 161s-36 161 -16 220c41 115 136 174 233 192c51 8 102 8 156 8
c49 0 103 -2 154 -2c0 97 2 184 -18 220c-26 44 -59 69 -164 69s-148 -31 -176 -62s-39 -74 -44 -110l-120 21c0 41 13 113 64 174zM625 179c28 23 35 49 38 59s0 210 0 210c-97 0 -192 10 -289 -3c-74 -13 -114 -29 -133 -107c-5 -21 -7 -80 15 -126c16 -34 56 -81 164 -84
c113 -3 174 23 205 51z" />
    <glyph glyph-name="uni2091" unicode="&#x2091;" 
d="M251 445c5 -84 23 -164 59 -215c41 -61 97 -94 187 -99c82 0 133 22 169 53s56 69 69 110l125 -38c-18 -56 -53 -121 -112 -172s-143 -84 -251 -84h-3c-128 5 -231 67 -292 159s-84 205 -84 325c0 118 15 243 71 340s162 169 305 172h3c97 -3 197 -26 271 -105
s113 -207 110 -384v-62h-627zM453 860c-92 -15 -187 -105 -197 -287h489c-5 118 -28 177 -69 228s-131 74 -223 59z" />
    <glyph glyph-name="uni2092" unicode="&#x2092;" 
d="M499 998c146 0 257 -74 318 -171s89 -217 89 -325s-28 -233 -89 -330s-174 -172 -320 -172s-259 75 -320 172s-85 222 -85 330s26 228 87 325s174 171 320 171zM499 868c-105 0 -163 -44 -207 -113s-69 -166 -69 -253s20 -192 64 -261s102 -113 210 -113s166 44 210 113
s69 174 69 261s-23 184 -67 253s-105 113 -210 113z" />
    <glyph glyph-name="uni2093" unicode="&#x2093;" 
d="M87 998h159l251 -378v-3h2v3l256 378h156l-332 -491l343 -507h-159l-261 389v5h-3l-2 -5l-261 -389h-159l343 507z" />
    <glyph glyph-name="uni2095" unicode="&#x2095;" 
d="M118 1331h128v-507h5c36 94 162 171 271 171c138 0 208 -51 272 -135c46 -61 87 -186 87 -294v-566h-133v566c0 90 -18 138 -49 197c-20 38 -67 99 -177 99c-105 0 -173 -45 -217 -114s-59 -164 -59 -254v-494h-128v494v837z" />
    <glyph glyph-name="uni2096" unicode="&#x2096;" 
d="M92 1331h131v-903l530 568l94 -87l-355 -384l414 -512v-13h-161l-346 428l-176 -190v-238h-131v1331z" />
    <glyph glyph-name="uni2097" unicode="&#x2097;" 
d="M74 1331h489v-1200h361v-131h-850v131h361v1072h-361v128z" />
    <glyph glyph-name="uni2098" unicode="&#x2098;" 
d="M72 998h105l25 -74c41 41 82 77 156 74s121 -56 149 -102c41 54 95 102 192 102s169 -79 197 -138s31 -112 31 -143v-717h-133v717c0 23 2 61 -11 89s-31 57 -82 62c-41 5 -74 -13 -102 -41s-33 -90 -33 -90v-737h-133v717c0 23 2 61 -11 89s-31 57 -82 62
c-38 5 -82 -13 -110 -41c-18 -20 -28 -46 -28 -74v-753h-130v998z" />
    <glyph glyph-name="uni2099" unicode="&#x2099;" 
d="M530 998c120 0 200 -53 261 -148s64 -202 64 -307v-543h-131v543c0 97 -7 177 -35 228s-65 84 -149 97c-115 18 -266 -15 -266 -238v-630h-131v998h113l18 -89c61 51 136 89 256 89z" />
    <glyph glyph-name="uni209A" unicode="&#x209a;" 
d="M95 998h105l25 -125c64 72 156 123 274 123c143 0 257 -75 318 -172s87 -219 87 -327s-26 -231 -87 -328s-172 -172 -318 -172c-118 0 -210 49 -274 121v-451h-130v1331zM499 865c-105 0 -176 -43 -220 -112s-54 -166 -54 -256s7 -187 51 -256s118 -113 223 -113
s166 44 210 113s64 166 64 256s-20 187 -64 256s-105 112 -210 112z" />
    <glyph glyph-name="uni209B" unicode="&#x209b;" 
d="M248 919c110 92 325 97 425 46s146 -110 164 -194l-105 -44c-23 61 -51 98 -92 118s-100 28 -177 23c-67 -5 -125 -31 -158 -69c-61 -72 -26 -171 71 -197s223 -54 320 -82s146 -88 172 -172s0 -179 -64 -246c-67 -67 -171 -102 -312 -102s-234 34 -295 90
s-77 130 -77 184l121 10c5 -38 12 -72 43 -100s88 -56 208 -56c118 0 187 31 220 67s43 76 30 125c-10 41 -36 59 -87 77c-113 36 -197 56 -294 82s-179 74 -207 156c-33 90 -16 192 94 284z" />
    <glyph glyph-name="uni209C" unicode="&#x209c;" 
d="M384 1229l131 36v-267h350v-133h-350v-734h348v-131h-479v865h-261v133h261v231z" />
    <glyph glyph-name="uni2047" unicode="&#x2047;" horiz-adv-x="2048" 
 />
    <glyph glyph-name="uni2048" unicode="&#x2048;" horiz-adv-x="2048" 
 />
    <glyph glyph-name="uni2049" unicode="&#x2049;" horiz-adv-x="2048" 
 />
    <glyph glyph-name="uni2010" unicode="&#x2010;" horiz-adv-x="2048" 
 />
    <glyph glyph-name="uni2011" unicode="&#x2011;" horiz-adv-x="2048" 
 />
    <glyph glyph-name="figuredash" unicode="&#x2012;" horiz-adv-x="2048" 
 />
    <glyph glyph-name="afii00208" unicode="&#x2015;" horiz-adv-x="2048" 
 />
  </font>
</defs>
</svg>
