<svg width="40" height="41" viewBox="0 0 40 41" fill="none" xmlns="http://www.w3.org/2000/svg">
<path d="M23.48 39.104L1.448 32.336V8.912L23.48 2.144L38.648 20.624L23.48 39.104Z" fill="#FFBFA8"/>
<path d="M23.48 39.104L23.1864 40.0599L23.8275 40.2569L24.253 39.7384L23.48 39.104ZM1.448 32.336H0.448V33.0749L1.15435 33.2919L1.448 32.336ZM1.448 8.912L1.15435 7.95609L0.448 8.17307V8.912H1.448ZM23.48 2.144L24.253 1.50956L23.8275 0.991141L23.1864 1.18808L23.48 2.144ZM38.648 20.624L39.421 21.2584L39.9417 20.624L39.421 19.9896L38.648 20.624ZM23.7736 38.1481L1.74165 31.3801L1.15435 33.2919L23.1864 40.0599L23.7736 38.1481ZM2.448 32.336V8.912H0.448V32.336H2.448ZM1.74165 9.86791L23.7736 3.09991L23.1864 1.18808L1.15435 7.95609L1.74165 9.86791ZM22.707 2.77844L37.875 21.2584L39.421 19.9896L24.253 1.50956L22.707 2.77844ZM37.875 19.9896L22.707 38.4696L24.253 39.7384L39.421 21.2584L37.875 19.9896Z" fill="#050505"/>
</svg>
