<svg viewBox="0 0 728 100" fill="currentColor" xmlns="http://www.w3.org/2000/svg">
<path d="M726.83 42.6245L727.696 26.7845C724.519 25.3445 720.477 24.4805 716.145 24.4805C706.905 24.4805 701.995 29.0885 697.953 33.9845V25.9205H682.07V97.9205H698.53V61.7765C698.53 44.3525 704.739 40.0325 715.279 40.0325C720.765 40.0325 723.509 41.1845 726.83 42.6245Z" fill="#050505"/>
<path d="M598.271 25.9199V75.4559C598.271 91.2959 609.1 99.3599 621.662 99.3599C633.212 99.3599 639.71 94.1759 642.309 92.1599V97.9199H658.191V25.9199H641.731V66.2399C641.731 74.8799 639.132 86.3999 627.437 86.3999C620.362 86.3999 614.731 82.0799 614.731 73.4399V25.9199H598.271Z" fill="#050505"/>
<path d="M513.742 62.4965C513.742 80.6405 525.293 99.3605 548.394 99.3605C571.496 99.3605 583.047 80.6405 583.047 62.4965C583.047 43.0565 570.052 24.4805 548.394 24.4805C526.737 24.4805 513.742 43.0565 513.742 62.4965ZM567.164 61.9205C567.164 75.7445 559.512 83.5205 548.394 83.5205C537.277 83.5205 529.624 75.7445 529.624 61.9205C529.624 48.9605 536.988 40.3205 548.394 40.3205C559.801 40.3205 567.164 48.9605 567.164 61.9205Z" fill="#050505"/>
<path d="M483.134 46.6565H499.594C499.594 39.4565 493.53 24.4805 470.717 24.4805C449.637 24.4805 442.129 35.1365 442.129 46.3685C442.129 73.7285 484.866 63.0725 484.866 77.3285C484.866 83.3765 480.246 86.4005 472.305 86.4005C461.476 86.4005 457.722 80.4965 456.567 74.8805H440.107C440.107 83.5205 445.161 99.3605 471.006 99.3605C490.931 99.3605 500.749 88.8485 500.749 75.3125C500.749 47.3765 458.011 56.3045 458.011 44.2085C458.011 40.4645 460.899 36.7205 469.273 36.7205C477.936 36.7205 483.423 40.1765 483.134 46.6565Z" fill="#050505"/>
<path d="M425.148 97.9205V46.9445C425.148 31.1045 414.464 24.4805 401.902 24.4805C394.538 24.4805 387.031 27.0725 381.111 31.6805V25.9205H365.229V97.9205H381.688V57.6005C381.688 49.8245 384.432 39.6005 396.127 39.6005C403.49 39.6005 408.688 43.6325 408.688 50.4005V97.9205H425.148Z" fill="#050505"/>
<path d="M338.484 76.7525V47.3765C338.484 31.8245 324.623 24.4805 308.308 24.4805C290.549 24.4805 276.688 33.4085 276.688 48.9605H294.303C294.303 40.4645 298.923 36.0005 307.875 36.0005C316.538 36.0005 322.602 41.1845 322.602 48.9605V52.4165H308.741C288.816 52.4165 274.955 59.0405 274.955 75.4565C274.955 88.1285 287.083 99.3605 303.254 99.3605C315.96 99.3605 323.179 93.3125 325.778 91.2965C329.099 96.9125 333.286 98.7845 342.094 98.7845C344.693 98.7845 347.292 98.6405 352.345 97.9205V82.0805C349.602 82.6565 347.725 82.9445 345.848 82.9445C341.372 82.9445 338.484 81.0725 338.484 76.7525ZM292.859 77.1845C292.859 69.4085 297.479 63.6485 322.602 64.8005V72.0005C322.602 77.7605 317.404 87.8405 305.565 87.8405C297.768 87.8405 292.859 82.9445 292.859 77.1845Z" fill="#050505"/>
<path d="M160.428 97.92H176.888V16.992L201.866 97.92H215.871L242.005 16.128V97.92H258.465V0H229.588L208.941 63.216L189.305 0H160.428V97.92Z" fill="#050505"/>
<path d="M0 97.92H16.4598V16.992L41.4383 97.92H55.4435L81.577 16.128V97.92H98.0368V0H69.16L48.5131 63.216L28.8768 0H0V97.92Z" fill="#050505"/>
</svg>
