<svg width="55" height="55" viewBox="0 0 55 55" fill="none" xmlns="http://www.w3.org/2000/svg">
    <path
      d="M0.774 54.296V0.127997H54.942V54.296H0.774ZM4.104 12.782H13.428V3.458H4.104V12.782ZM16.832 12.782H26.156V3.458H16.832V12.782ZM29.486 12.782H38.81V3.458H29.486V12.782ZM42.214 12.782H51.612V3.458H42.214V12.782ZM4.104 25.51H13.428V16.186H4.104V25.51ZM16.832 25.51H26.156V16.186H16.832V25.51ZM29.486 25.51H38.81V16.186H29.486V25.51ZM42.214 25.51H51.612V16.186H42.214V25.51ZM4.104 38.164H13.428V28.84H4.104V38.164ZM16.832 38.164H26.156V28.84H16.832V38.164ZM29.486 38.164H38.81V28.84H29.486V38.164ZM42.214 38.164H51.612V28.84H42.214V38.164ZM4.104 50.966H13.428V41.494H4.104V50.966ZM16.832 50.966H26.156V41.494H16.832V50.966ZM29.486 50.966H38.81V41.494H29.486V50.966ZM42.214 50.966H51.612V41.494H42.214V50.966Z"
      fill="#FFFEF0" />
</svg>